<mxfile host="app.diagrams.net" modified="2024-07-03T07:42:21.263Z" agent="Mozilla/5.0 (Windows NT 10.0; Win64; x64) AppleWebKit/537.36 (KHTML, like Gecko) Chrome/126.0.0.0 Safari/537.36" etag="n-Bc1TAGqWqbSdpZ5IkC" version="24.6.4" type="device">
  <diagram name="Sayfa -1" id="DzjDWYlGvZDKp0y0Cmrg">
    <mxGraphModel dx="1400" dy="1912" grid="1" gridSize="10" guides="1" tooltips="1" connect="1" arrows="1" fold="1" page="1" pageScale="1" pageWidth="827" pageHeight="1169" math="0" shadow="0">
      <root>
        <mxCell id="0" />
        <mxCell id="1" parent="0" />
        <mxCell id="iZQ3Th68iL0P0H3HoFKl-1" value="Kullanıcı" style="shape=umlActor;verticalLabelPosition=bottom;verticalAlign=top;html=1;outlineConnect=0;" vertex="1" parent="1">
          <mxGeometry x="90" y="20" width="20" height="40" as="geometry" />
        </mxCell>
        <mxCell id="iZQ3Th68iL0P0H3HoFKl-3" value="Uygulama" style="rounded=0;whiteSpace=wrap;html=1;" vertex="1" parent="1">
          <mxGeometry x="200" y="40" width="80" height="40" as="geometry" />
        </mxCell>
        <mxCell id="iZQ3Th68iL0P0H3HoFKl-4" value="Veritabanı" style="rounded=0;whiteSpace=wrap;html=1;" vertex="1" parent="1">
          <mxGeometry x="360" y="40" width="80" height="40" as="geometry" />
        </mxCell>
        <mxCell id="iZQ3Th68iL0P0H3HoFKl-6" value="" style="endArrow=none;dashed=1;html=1;rounded=0;" edge="1" parent="1" source="iZQ3Th68iL0P0H3HoFKl-14">
          <mxGeometry width="50" height="50" relative="1" as="geometry">
            <mxPoint x="100" y="400.37211573401163" as="sourcePoint" />
            <mxPoint x="100" y="80" as="targetPoint" />
          </mxGeometry>
        </mxCell>
        <mxCell id="iZQ3Th68iL0P0H3HoFKl-7" value="" style="endArrow=none;dashed=1;html=1;rounded=0;" edge="1" parent="1">
          <mxGeometry width="50" height="50" relative="1" as="geometry">
            <mxPoint x="239.6" y="400.37211573401163" as="sourcePoint" />
            <mxPoint x="239.6" y="80" as="targetPoint" />
          </mxGeometry>
        </mxCell>
        <mxCell id="iZQ3Th68iL0P0H3HoFKl-8" value="" style="endArrow=none;dashed=1;html=1;rounded=0;" edge="1" parent="1" source="iZQ3Th68iL0P0H3HoFKl-12">
          <mxGeometry width="50" height="50" relative="1" as="geometry">
            <mxPoint x="399.6" y="400.37211573401163" as="sourcePoint" />
            <mxPoint x="399.6" y="80" as="targetPoint" />
          </mxGeometry>
        </mxCell>
        <mxCell id="iZQ3Th68iL0P0H3HoFKl-10" value="" style="rounded=0;whiteSpace=wrap;html=1;" vertex="1" parent="1">
          <mxGeometry x="235" y="120" width="10" height="270" as="geometry" />
        </mxCell>
        <mxCell id="iZQ3Th68iL0P0H3HoFKl-13" value="" style="endArrow=none;dashed=1;html=1;rounded=0;" edge="1" parent="1" target="iZQ3Th68iL0P0H3HoFKl-12">
          <mxGeometry width="50" height="50" relative="1" as="geometry">
            <mxPoint x="399.6" y="400.37211573401163" as="sourcePoint" />
            <mxPoint x="399.6" y="80" as="targetPoint" />
          </mxGeometry>
        </mxCell>
        <mxCell id="iZQ3Th68iL0P0H3HoFKl-12" value="" style="rounded=0;whiteSpace=wrap;html=1;" vertex="1" parent="1">
          <mxGeometry x="395" y="280" width="10" height="50" as="geometry" />
        </mxCell>
        <mxCell id="iZQ3Th68iL0P0H3HoFKl-15" value="" style="endArrow=none;dashed=1;html=1;rounded=0;" edge="1" parent="1" target="iZQ3Th68iL0P0H3HoFKl-14">
          <mxGeometry width="50" height="50" relative="1" as="geometry">
            <mxPoint x="100" y="400.37211573401163" as="sourcePoint" />
            <mxPoint x="100" y="80" as="targetPoint" />
          </mxGeometry>
        </mxCell>
        <mxCell id="iZQ3Th68iL0P0H3HoFKl-14" value="" style="rounded=0;whiteSpace=wrap;html=1;" vertex="1" parent="1">
          <mxGeometry x="95" y="90" width="10" height="300" as="geometry" />
        </mxCell>
        <mxCell id="iZQ3Th68iL0P0H3HoFKl-17" value="" style="endArrow=classic;html=1;rounded=0;exitX=0.991;exitY=0.1;exitDx=0;exitDy=0;exitPerimeter=0;" edge="1" parent="1" source="iZQ3Th68iL0P0H3HoFKl-14">
          <mxGeometry width="50" height="50" relative="1" as="geometry">
            <mxPoint x="110" y="120" as="sourcePoint" />
            <mxPoint x="235" y="120" as="targetPoint" />
          </mxGeometry>
        </mxCell>
        <mxCell id="iZQ3Th68iL0P0H3HoFKl-18" value="startWalkRecord()" style="edgeLabel;html=1;align=center;verticalAlign=middle;resizable=0;points=[];" vertex="1" connectable="0" parent="iZQ3Th68iL0P0H3HoFKl-17">
          <mxGeometry x="0.1044" relative="1" as="geometry">
            <mxPoint x="-7" y="-10" as="offset" />
          </mxGeometry>
        </mxCell>
        <mxCell id="iZQ3Th68iL0P0H3HoFKl-19" value="loop" style="shape=umlFrame;whiteSpace=wrap;html=1;pointerEvents=0;width=50;height=20;" vertex="1" parent="1">
          <mxGeometry x="20" y="150" width="410" height="120" as="geometry" />
        </mxCell>
        <mxCell id="iZQ3Th68iL0P0H3HoFKl-20" value="&lt;font style=&quot;font-size: 5px;&quot;&gt;[Kullanıcı&amp;nbsp;&lt;/font&gt;&lt;span style=&quot;font-size: 5px; background-color: initial;&quot;&gt;kayıtı bitirene&amp;nbsp;&lt;/span&gt;&lt;span style=&quot;font-size: 5px; background-color: initial;&quot;&gt;kadar]&lt;/span&gt;" style="text;html=1;align=center;verticalAlign=middle;resizable=0;points=[];autosize=1;strokeColor=none;fillColor=none;" vertex="1" parent="1">
          <mxGeometry x="10" y="175" width="90" height="30" as="geometry" />
        </mxCell>
        <mxCell id="iZQ3Th68iL0P0H3HoFKl-21" value="" style="endArrow=classic;html=1;rounded=0;exitX=0.996;exitY=0.149;exitDx=0;exitDy=0;exitPerimeter=0;entryX=1.022;entryY=0.327;entryDx=0;entryDy=0;entryPerimeter=0;" edge="1" parent="1" source="iZQ3Th68iL0P0H3HoFKl-10" target="iZQ3Th68iL0P0H3HoFKl-10">
          <mxGeometry width="50" height="50" relative="1" as="geometry">
            <mxPoint x="260" y="210" as="sourcePoint" />
            <mxPoint x="310" y="160" as="targetPoint" />
            <Array as="points">
              <mxPoint x="280" y="160" />
              <mxPoint x="280" y="190" />
              <mxPoint x="280" y="208" />
            </Array>
          </mxGeometry>
        </mxCell>
        <mxCell id="iZQ3Th68iL0P0H3HoFKl-22" value="&lt;font style=&quot;font-size: 10px;&quot;&gt;saveNode()&lt;/font&gt;" style="edgeLabel;html=1;align=center;verticalAlign=middle;resizable=0;points=[];" vertex="1" connectable="0" parent="iZQ3Th68iL0P0H3HoFKl-21">
          <mxGeometry x="0.0045" relative="1" as="geometry">
            <mxPoint x="20" as="offset" />
          </mxGeometry>
        </mxCell>
        <mxCell id="iZQ3Th68iL0P0H3HoFKl-23" value="" style="endArrow=classic;html=1;rounded=0;exitX=0.996;exitY=0.149;exitDx=0;exitDy=0;exitPerimeter=0;entryX=1.022;entryY=0.327;entryDx=0;entryDy=0;entryPerimeter=0;" edge="1" parent="1">
          <mxGeometry width="50" height="50" relative="1" as="geometry">
            <mxPoint x="245" y="216" as="sourcePoint" />
            <mxPoint x="245" y="264" as="targetPoint" />
            <Array as="points">
              <mxPoint x="280" y="216" />
              <mxPoint x="280" y="246" />
              <mxPoint x="280" y="264" />
            </Array>
          </mxGeometry>
        </mxCell>
        <mxCell id="iZQ3Th68iL0P0H3HoFKl-24" value="&lt;font style=&quot;font-size: 10px;&quot;&gt;updateRecordDisplay()&lt;/font&gt;" style="edgeLabel;html=1;align=center;verticalAlign=middle;resizable=0;points=[];" vertex="1" connectable="0" parent="iZQ3Th68iL0P0H3HoFKl-23">
          <mxGeometry x="0.0045" relative="1" as="geometry">
            <mxPoint x="30" as="offset" />
          </mxGeometry>
        </mxCell>
        <mxCell id="iZQ3Th68iL0P0H3HoFKl-25" value="" style="endArrow=classic;html=1;rounded=0;entryX=0;entryY=0;entryDx=0;entryDy=0;exitX=0.964;exitY=0.592;exitDx=0;exitDy=0;exitPerimeter=0;" edge="1" parent="1" source="iZQ3Th68iL0P0H3HoFKl-10" target="iZQ3Th68iL0P0H3HoFKl-12">
          <mxGeometry width="50" height="50" relative="1" as="geometry">
            <mxPoint x="330" y="330" as="sourcePoint" />
            <mxPoint x="380" y="280" as="targetPoint" />
          </mxGeometry>
        </mxCell>
        <mxCell id="iZQ3Th68iL0P0H3HoFKl-26" value="uploadRecord()" style="edgeLabel;html=1;align=center;verticalAlign=middle;resizable=0;points=[];" vertex="1" connectable="0" parent="iZQ3Th68iL0P0H3HoFKl-25">
          <mxGeometry x="-0.1194" relative="1" as="geometry">
            <mxPoint x="9" as="offset" />
          </mxGeometry>
        </mxCell>
        <mxCell id="iZQ3Th68iL0P0H3HoFKl-27" value="" style="endArrow=classic;html=1;rounded=0;exitX=0;exitY=1;exitDx=0;exitDy=0;entryX=1.004;entryY=0.783;entryDx=0;entryDy=0;entryPerimeter=0;dashed=1;" edge="1" parent="1" source="iZQ3Th68iL0P0H3HoFKl-12" target="iZQ3Th68iL0P0H3HoFKl-10">
          <mxGeometry width="50" height="50" relative="1" as="geometry">
            <mxPoint x="310" y="390" as="sourcePoint" />
            <mxPoint x="360" y="340" as="targetPoint" />
          </mxGeometry>
        </mxCell>
        <mxCell id="iZQ3Th68iL0P0H3HoFKl-28" value="upload success" style="edgeLabel;html=1;align=center;verticalAlign=middle;resizable=0;points=[];" vertex="1" connectable="0" parent="iZQ3Th68iL0P0H3HoFKl-27">
          <mxGeometry x="0.5643" y="1" relative="1" as="geometry">
            <mxPoint x="42" y="-1" as="offset" />
          </mxGeometry>
        </mxCell>
        <mxCell id="iZQ3Th68iL0P0H3HoFKl-33" value="Sıralama Diyagramı" style="text;html=1;align=center;verticalAlign=middle;whiteSpace=wrap;rounded=0;fontSize=16;" vertex="1" parent="1">
          <mxGeometry x="160" y="-40" width="160" height="30" as="geometry" />
        </mxCell>
        <mxCell id="iZQ3Th68iL0P0H3HoFKl-34" value="&lt;font style=&quot;font-size: 10px;&quot;&gt;Yürüyüş Kayıt Programı&lt;/font&gt;&lt;div&gt;&lt;font style=&quot;font-size: 10px;&quot;&gt;Yol Kaydı&lt;/font&gt;&lt;/div&gt;" style="text;html=1;align=center;verticalAlign=middle;whiteSpace=wrap;rounded=0;fontSize=16;" vertex="1" parent="1">
          <mxGeometry x="180" y="-10" width="120" height="30" as="geometry" />
        </mxCell>
        <mxCell id="iZQ3Th68iL0P0H3HoFKl-35" value="&lt;font style=&quot;font-size: 10px;&quot;&gt;Ahmet Arda Bağdatlı&lt;/font&gt;" style="text;html=1;align=center;verticalAlign=middle;whiteSpace=wrap;rounded=0;fontSize=16;" vertex="1" parent="1">
          <mxGeometry x="354" y="410" width="120" height="30" as="geometry" />
        </mxCell>
      </root>
    </mxGraphModel>
  </diagram>
</mxfile>
